<?xml version="1.0" standalone="no"?>
<!DOCTYPE svg PUBLIC "-//W3C//DTD SVG 1.1//EN"
"http://www.w3.org/Graphics/SVG/1.1/DTD/svg11.dtd">

<svg width="345" height="245" view_box="0 0 345 245"
xmlns="http://www.w3.org/2000/svg"
xmlns:link="http://www.w3.org/1999/xlink">\n\n<desc>Généré par Mocodo 2.3.7 le Tue, 24 Mar 2020 05:00:40</desc>

<rect id="frame" x="0" y="0" width="345" height="245" fill="#ffffbf" stroke="none" stroke-width="0"/>

<!-- Association DF -->
<line x1="299" y1="51" x2="214" y2="51" stroke="#66c2a5" stroke-width="2"/>
<text x="235" y="68.0" fill="#d53e4f" font-family="Verdana" font-size="12">0,N</text>
<line x1="123" y1="51" x2="214" y2="51" stroke="#66c2a5" stroke-width="2"/>
<text x="167" y="68.0" fill="#d53e4f" font-family="Verdana" font-size="12">1,1</text>
<line x1="167" y1="70.0" x2="188" y2="70.0" stroke="#d53e4f" stroke-width="1"/>
<g id="association-DF">
	<circle cx="214" cy="51" r="16" stroke="#66c2a5" stroke-width="2" fill="#abdda4"/>
	<text x="205" y="55.0" fill="#000000" font-family="Verdana" font-size="12">DF</text>
</g>

<!-- Association HAVE -->
<line x1="214" y1="177" x2="123" y2="177" stroke="#66c2a5" stroke-width="2"/>
<text x="152" y="194.0" fill="#d53e4f" font-family="Verdana" font-size="12">1,N</text>
<line x1="123" y1="51" x2="123" y2="177" stroke="#66c2a5" stroke-width="2"/>
<text x="128.0" y="110" fill="#d53e4f" font-family="Verdana" font-size="12">1,N</text>
<line x1="38" y1="177" x2="123" y2="177" stroke="#66c2a5" stroke-width="2"/>
<text x="72" y="194.0" fill="#d53e4f" font-family="Verdana" font-size="12">1,N</text>
<g id="association-HAVE">
	<path d="M 133 152 a 14 14 90 0 1 14 14 V 177 h -48 V 166 a 14 14 90 0 1 14 -14" fill="#abdda4" stroke="#abdda4" stroke-width="0"/>
	<path d="M 147 177.0 v 11 a 14 14 90 0 1 -14 14 H 113 a 14 14 90 0 1 -14 -14 V 177.0 H 48" fill="#e6f598" stroke="#e6f598" stroke-width="0"/>
	<rect x="99" y="152" width="48" height="50" fill="none" rx="14" stroke="#66c2a5" stroke-width="2"/>
	<line x1="99" y1="177" x2="147" y2="177" stroke="#66c2a5" stroke-width="1"/>
	<text x="106" y="169.7" fill="#000000" font-family="Verdana" font-size="12">HAVE</text>
</g>

<!-- Entity SKILLS -->
<g id="entity-SKILLS">
	<g id="frame-SKILLS">
		<rect x="84" y="9" width="78" height="25" fill="#fdae61" stroke="#fdae61" stroke-width="0"/>
		<rect x="84" y="34.0" width="78" height="59" fill="#fee08b" stroke="#fee08b" stroke-width="0"/>
		<rect x="84" y="9" width="78" height="84" fill="none" stroke="#f46d43" stroke-width="2"/>
		<line x1="84" y1="34" x2="162" y2="34" stroke="#f46d43" stroke-width="1"/>
	</g>
	<text x="101" y="26.7" fill="#000000" font-family="Verdana" font-size="12">SKILLS</text>
	<text x="89" y="51.8" fill="#000000" font-family="Verdana" font-size="12">skill_id</text>
	<line x1="89" y1="54" x2="132" y2="54" style="fill:none;stroke:#000000;stroke-width:1;stroke-dasharray:4;"/>
	<text x="89" y="68.8" fill="#000000" font-family="Verdana" font-size="12">title</text>
	<text x="89" y="85.8" fill="#000000" font-family="Verdana" font-size="12">description</text>
</g>

<!-- Entity LEVELS -->
<g id="entity-LEVELS">
	<g id="frame-LEVELS">
		<rect x="9" y="143" width="58" height="25" fill="#fdae61" stroke="#fdae61" stroke-width="0"/>
		<rect x="9" y="168.0" width="58" height="43" fill="#fee08b" stroke="#fee08b" stroke-width="0"/>
		<rect x="9" y="143" width="58" height="68" fill="none" stroke="#f46d43" stroke-width="2"/>
		<line x1="9" y1="168" x2="67" y2="168" stroke="#f46d43" stroke-width="1"/>
	</g>
	<text x="15" y="160.7" fill="#000000" font-family="Verdana" font-size="12">LEVELS</text>
	<text x="14" y="185.8" fill="#000000" font-family="Verdana" font-size="12">level_id</text>
	<line x1="14" y1="188" x2="61" y2="188" stroke="#000000" stroke-width="1"/>
	<text x="14" y="202.8" fill="#000000" font-family="Verdana" font-size="12">name</text>
</g>

<!-- Entity MODULES -->
<g id="entity-MODULES">
	<g id="frame-MODULES">
		<rect x="262" y="17" width="74" height="25" fill="#fdae61" stroke="#fdae61" stroke-width="0"/>
		<rect x="262" y="42.0" width="74" height="43" fill="#fee08b" stroke="#fee08b" stroke-width="0"/>
		<rect x="262" y="17" width="74" height="68" fill="none" stroke="#f46d43" stroke-width="2"/>
		<line x1="262" y1="42" x2="336" y2="42" stroke="#f46d43" stroke-width="1"/>
	</g>
	<text x="268" y="34.7" fill="#000000" font-family="Verdana" font-size="12">MODULES</text>
	<text x="267" y="59.8" fill="#000000" font-family="Verdana" font-size="12">module_id</text>
	<line x1="267" y1="62" x2="331" y2="62" stroke="#000000" stroke-width="1"/>
	<text x="267" y="76.8" fill="#000000" font-family="Verdana" font-size="12">title</text>
</g>

<!-- Entity USERS -->
<g id="entity-USERS">
	<g id="frame-USERS">
		<rect x="179" y="118" width="70" height="25" fill="#fdae61" stroke="#fdae61" stroke-width="0"/>
		<rect x="179" y="143.0" width="70" height="93" fill="#fee08b" stroke="#fee08b" stroke-width="0"/>
		<rect x="179" y="118" width="70" height="118" fill="none" stroke="#f46d43" stroke-width="2"/>
		<line x1="179" y1="143" x2="249" y2="143" stroke="#f46d43" stroke-width="1"/>
	</g>
	<text x="193" y="135.7" fill="#000000" font-family="Verdana" font-size="12">USERS</text>
	<text x="184" y="160.7" fill="#000000" font-family="Verdana" font-size="12">id</text>
	<line x1="184" y1="163" x2="196" y2="163" stroke="#000000" stroke-width="1"/>
	<text x="184" y="177.8" fill="#000000" font-family="Verdana" font-size="12">firstName</text>
	<text x="184" y="194.8" fill="#000000" font-family="Verdana" font-size="12">lastName</text>
	<text x="184" y="211.8" fill="#000000" font-family="Verdana" font-size="12">email</text>
	<text x="184" y="228.8" fill="#000000" font-family="Verdana" font-size="12">password</text>
</g>
</svg>